<?xml version="1.0" encoding="UTF-8" standalone="no"?>

<svg
   width="135.08025mm"
   height="135.12851mm"
   viewBox="0 0 135.08025 135.12851"
   version="1.1"
   id="svg5"
   xml:space="preserve"
   xmlns="http://www.w3.org/2000/svg"
   xmlns:svg="http://www.w3.org/2000/svg"><defs
     id="defs2" /><g
     id="layer1"
     transform="translate(187.22344,-210.81179)"><path
       style="fill:#000000;stroke-width:0.0846667"
       d="m -123.89287,345.8461 -1.05834,-0.0693 -1.35466,-0.13411 -1.35467,-0.1341 -1.48167,-0.21084 -1.48166,-0.21084 -1.18534,-0.21594 -1.18533,-0.21594 -1.49867,-0.3335 -1.49868,-0.3335 -1.54932,-0.42256 -1.54933,-0.42256 -1.98967,-0.66698 -1.98966,-0.66698 -1.397,-0.55286 -1.397,-0.55287 -1.26962,-0.56393 -1.26962,-0.56393 -1.90538,-0.96498 -1.90538,-0.96499 -1.397,-0.81658 -1.397,-0.81658 -1.27001,-0.81347 -1.27,-0.81347 -1.35466,-0.96952 -1.35467,-0.96953 -1.09336,-0.85205 -1.09337,-0.85206 -1.19263,-1.02192 -1.19264,-1.02192 -1.33066,-1.24576 -1.33065,-1.24575 -1.24576,-1.33066 -1.24576,-1.33066 -1.02192,-1.19264 -1.02192,-1.19263 -0.85205,-1.09337 -0.85206,-1.09336 -0.96952,-1.35467 -0.96953,-1.35466 -0.81347,-1.27 -0.81347,-1.27 -0.81658,-1.397 -0.81658,-1.397 -0.96498,-1.90538 -0.96499,-1.90538 -0.56393,-1.26962 -0.56393,-1.26962 -0.55286,-1.397 -0.55287,-1.397 -0.66698,-1.98967 -0.66698,-1.98967 -0.42256,-1.54932 -0.42255,-1.54933 -0.3335,-1.49867 -0.3335,-1.49867 -0.21595,-1.18534 -0.21594,-1.18533 -0.21061,-1.48167 -0.21061,-1.48166 -0.12928,-1.31234 -0.12928,-1.31233 -0.0865,-1.35322 -0.0865,-1.35322 v -2.66989 -2.66989 l 0.0865,-1.35323 0.0865,-1.35322 0.12928,-1.31233 0.12928,-1.31233 0.21061,-1.48167 0.21061,-1.48167 0.21594,-1.18533 0.21595,-1.18533 0.3335,-1.49868 0.3335,-1.49867 0.42255,-1.54933 0.42256,-1.54932 0.66698,-1.98967 0.66698,-1.98967 0.55287,-1.397 0.55286,-1.397 0.56393,-1.26961 0.56393,-1.26962 0.96499,-1.90538 0.96498,-1.90539 0.81658,-1.397 0.81658,-1.397 0.81347,-1.27 0.81347,-1.27 0.96953,-1.35466 0.96952,-1.35467 0.85206,-1.09336 0.85205,-1.09337 1.02192,-1.19263 1.02192,-1.19264 1.24576,-1.33066 1.24576,-1.33065 1.33065,-1.24576 1.33066,-1.24576 1.19264,-1.02192 1.19263,-1.02192 1.09337,-0.85205 1.09336,-0.85206 1.35467,-0.96953 1.35466,-0.96952 1.27,-0.81347 1.27001,-0.81347 1.397,-0.81658 1.397,-0.81658 1.90538,-0.96499 1.90538,-0.96498 1.26962,-0.56393 1.26962,-0.56393 1.397,-0.55286 1.397,-0.55287 1.98966,-0.66698 1.98967,-0.66698 1.54933,-0.42256 1.54932,-0.42255 1.49868,-0.3335 1.49867,-0.3335 1.18533,-0.21595 1.18534,-0.21594 1.48166,-0.21061 1.48167,-0.21061 1.31233,-0.12928 1.31234,-0.12928 1.35322,-0.0866 1.35322,-0.0865 h 2.66989 2.66989 l 1.35322,0.0865 1.35322,0.0866 1.31234,0.12928 1.31233,0.12928 1.48167,0.21061 1.48166,0.21061 1.18534,0.21594 1.18533,0.21595 1.49868,0.3335 1.49866,0.3335 1.54934,0.42255 1.54932,0.42256 1.989669,0.66698 1.98966,0.66698 1.397,0.55287 1.397,0.55286 1.26962,0.56393 1.26962,0.56393 1.90538,0.96498 1.90538,0.96499 1.397,0.81658 1.397,0.81658 1.27,0.81347 1.27,0.81347 1.35467,0.96952 1.35467,0.96953 1.09336,0.85206 1.09336,0.85205 1.19264,1.02192 1.19264,1.02192 1.33065,1.24576 1.33067,1.24576 1.24575,1.33065 1.24576,1.33066 1.02192,1.19264 1.02191,1.19263 0.85206,1.09337 0.852049,1.09336 0.96953,1.35467 0.96953,1.35466 0.81347,1.27 0.81347,1.27 0.81657,1.397 0.81659,1.397 0.96498,1.90539 0.96498,1.90538 0.56394,1.26962 0.56393,1.26961 0.53706,1.35758 0.53708,1.35758 0.59566,1.75242 0.59567,1.75242 0.38223,1.335 0.38222,1.335 0.33514,1.397 0.33515,1.397 0.29779,1.524 0.29779,1.524 0.22395,1.56027 0.22395,1.56027 -0.0486,0.24311 -0.0486,0.2431 0.0715,-0.0442 0.0714,-0.0442 0.0518,0.56912 0.0518,0.56912 0.14597,1.56634 0.14597,1.56633 0.002,3.09033 0.002,3.09034 -0.14887,1.31233 -0.14887,1.31233 -0.16615,1.10067 -0.16615,1.10066 -0.21624,1.10067 -0.21624,1.10067 -0.25311,1.016 -0.25311,1.016 -0.38773,1.31233 -0.38774,1.31233 -0.49293,1.31234 -0.49294,1.31233 -0.24911,0.59267 -0.24911,0.59266 -0.16732,0.381 -0.16732,0.381 -0.57151,1.17545 -0.5715,1.17546 -0.5088,0.89888 -0.50881,0.89888 -0.38313,0.635 -0.38313,0.635 -0.52376,0.80433 -0.52376,0.80434 -0.99121,1.34349 -0.99121,1.34351 -0.35593,0.42558 -0.35591,0.42558 -0.98234,1.10958 -0.98233,1.10959 -1.303669,1.27031 -1.30366,1.27031 -1.016,0.84932 -1.016,0.84932 -0.67733,0.52296 -0.67734,0.52296 -0.42177,0.31399 -0.42178,0.31397 -1.10222,0.7352 -1.10223,0.73519 -1.18533,0.69415 -1.18533,0.69415 -1.31234,0.66307 -1.31233,0.66306 -1.05833,0.4658 -1.05834,0.46578 -1.35466,0.50551 -1.35467,0.50551 -1.43933,0.4334 -1.43934,0.4334 -1.08598,0.2588 -1.08599,0.25881 -1.03068,0.20453 -1.03068,0.20454 -1.18533,0.16936 -1.18534,0.16935 -0.97366,0.0854 -0.97367,0.0855 -0.66677,0.0531 -0.66675,0.0531 -2.25425,-0.003 -2.254229,-0.003 -1.48167,-0.12803 -1.48166,-0.12804 -1.22767,-0.17465 -1.22767,-0.17465 -1.10066,-0.21361 -1.10067,-0.21361 -1.35467,-0.33556 -1.35466,-0.33555 -1.60867,-0.51453 -1.60867,-0.51452 -1.53228,-0.62097 -1.53229,-0.62097 -1.47338,-0.72014 -1.47338,-0.72014 -0.59267,-0.332 -0.59266,-0.332 -0.71967,-0.42108 -0.71967,-0.42107 -0.97366,-0.63616 -0.97367,-0.63616 -1.35121,-0.99679 -1.3512,-0.99678 -0.51146,-0.43392 -0.51146,-0.43392 -0.71967,-0.6316 -0.71967,-0.6316 -1.3587,-1.35906 -1.35871,-1.35906 -0.55932,-0.635 -0.55932,-0.635 -0.74949,-0.93134 -0.74949,-0.93133 -0.35932,-0.48683 -0.35938,-0.48687 -0.32886,-0.4445 -0.32886,-0.4445 -0.72017,-1.10067 -0.72017,-1.10066 -0.60645,-1.05834 -0.60646,-1.05833 -0.66452,-1.31233 -0.66451,-1.31234 -0.50624,-1.18533 -0.50624,-1.18533 -0.42798,-1.1504 -0.42798,-1.1504 -0.34248,-1.11544 -0.34248,-1.11543 -0.21665,-0.8245 -0.21665,-0.8245 -0.28668,-1.31233 -0.28668,-1.31234 -0.21325,-1.397 -0.21326,-1.397 -0.14678,-1.52399 -0.14679,-1.524 5.1e-4,-2.58234 5.1e-4,-2.58233 0.14598,-1.524 0.14598,-1.524 0.16702,-1.143 0.16701,-1.143 0.25555,-1.26829 0.25555,-1.26828 0.25675,-1.01772 0.25674,-1.01771 0.37409,-1.22767 0.37409,-1.22766 0.28505,-0.762 0.28505,-0.762 0.25704,-0.67734 0.25704,-0.67733 0.31513,-0.71967 0.31513,-0.71966 0.6645,-1.35467 0.6645,-1.35467 0.32622,-0.59266 0.32623,-0.59267 0.55739,-0.93133 0.5574,-0.93134 0.53962,-0.80433 0.53961,-0.80433 0.99665,-1.34088 0.99665,-1.34089 0.47325,-0.56411 0.47325,-0.56412 0.68298,-0.762 0.68298,-0.762 1.18917,-1.18782 1.18917,-1.18782 1.25123,-1.07003 1.25123,-1.07003 1.03477,-0.78047 1.03477,-0.78047 1.18534,-0.7847 1.18533,-0.78469 1.016,-0.60667 1.016,-0.60667 1.82033,-0.9085 1.82034,-0.90849 1.18533,-0.48764 1.18533,-0.48764 1.10067,-0.38557 1.10067,-0.38557 0.80433,-0.24819 0.80433,-0.24818 1.10067,-0.28745 1.10067,-0.28744 1.016,-0.21163 1.016,-0.21162 1.02844,-0.17504 1.02846,-0.17505 1.51154,-0.17401 1.51156,-0.17401 2.497659,-0.0486 2.49767,-0.0486 1.43933,0.0983 1.43934,0.0983 1.397,0.17306 1.397,0.17305 1.143,0.20972 1.143,0.20973 0.93133,0.20819 0.93133,0.20819 0.80434,0.22084 0.80433,0.22084 1.28013,0.40492 1.28013,0.40491 1.00587,0.38423 1.00587,0.38423 0.59267,0.2484 0.59266,0.2484 0.508,0.22836 0.508,0.22836 1.05834,0.52269 1.05833,0.5227 1.05833,0.60073 1.05834,0.60072 0.508,0.31189 0.508,0.3119 0.50864,0.31942 0.50864,0.31941 1.43869,1.04676 1.43869,1.04676 0.62792,0.51605 0.62792,0.51606 0.76908,0.67152 0.76908,0.67153 1.317639,1.31814 1.31763,1.31815 0.88778,1.016 0.88777,1.016 0.59684,0.762 0.59684,0.762 0.4656,0.635 0.4656,0.635 0.62333,0.93133 0.62335,0.93133 0.70766,1.18534 0.70766,1.18533 0.95138,1.905 0.95137,1.905 0.59933,1.524 0.59933,1.524 0.46592,1.43933 0.46591,1.43934 0.3859,1.56633 0.3859,1.56633 0.0876,0.33867 0.0876,0.33867 -0.0446,-0.46567 -0.0446,-0.46567 -0.24781,-1.22766 -0.24782,-1.22767 -0.34358,-1.397 -0.34359,-1.397 -0.34272,-1.143 -0.34272,-1.143 -0.4068,-1.18533 -0.4068,-1.18534 -0.35074,-0.91745 -0.35073,-0.91745 -0.42904,-1.02988 -0.42904,-1.02988 -0.79818,-1.64673 -0.79818,-1.64673 -0.51846,-0.93561 -0.51846,-0.9356 -0.54683,-0.93133 -0.54682,-0.93134 -0.30034,-0.46566 -0.30034,-0.46567 -0.76308,-1.143 -0.76307,-1.143 -0.7623,-1.016 -0.7623,-1.016 -0.46845,-0.59267 -0.46846,-0.59266 -0.721269,-0.84667 -0.72127,-0.84667 -0.38342,-0.41956 -0.38342,-0.41957 -0.7952,-0.82785 -0.79521,-0.82785 -0.94046,-0.92286 -0.94046,-0.92286 -0.80523,-0.70839 -0.80522,-0.70839 -0.76111,-0.63808 -0.76111,-0.63808 -1.11769,-0.86855 -1.11768,-0.86855 -1.25298,-0.85308 -1.25298,-0.85307 -0.889,-0.55333 -0.889,-0.55333 -0.42334,-0.25397 -0.42333,-0.25396 -0.762,-0.43375 -0.762,-0.43374 -1.524,-0.77166 -1.524,-0.77167 -1.43933,-0.63368 -1.43934,-0.63368 -1.69333,-0.6345 -1.69333,-0.6345 -1.016,-0.31717 -1.016,-0.31717 -1.016,-0.28808 -1.016,-0.28808 -1.21574,-0.2957 -1.21573,-0.29569 -1.535939,-0.29014 -1.53593,-0.29013 -1.22766,-0.17048 -1.22767,-0.17049 -1.27,-0.13017 -1.27,-0.13018 -1.48167,-0.0843 -1.48166,-0.0843 -1.651,-4.2e-4 -1.651,-4.2e-4 -1.43934,0.0835 -1.43933,0.0835 -1.35467,0.13238 -1.35466,0.13239 -1.69334,0.25471 -1.69333,0.25472 -1.56633,0.32724 -1.56634,0.32725 -1.14872,0.29832 -1.14871,0.29832 -1.41989,0.42821 -1.41988,0.42821 -1.51354,0.54947 -1.51354,0.54948 -1.58349,0.68363 -1.58349,0.68363 -1.70037,0.85061 -1.70037,0.8506 -1.143,0.65662 -1.143,0.65661 -0.84667,0.52738 -0.84666,0.52738 -1.18534,0.80797 -1.18533,0.80796 -0.635,0.47195 -0.635,0.47194 -0.762,0.59465 -0.762,0.59466 -0.16933,0.13839 -0.16934,0.1384 -0.635,0.53658 -0.635,0.53659 -0.3786,0.34102 -0.3786,0.34102 -0.55273,0.50651 -0.55272,0.50654 -1.27126,1.27149 -1.27126,1.27148 -1.01474,1.15192 -1.01474,1.15192 -0.34124,0.41442 -0.34123,0.41441 -0.89523,1.143 -0.89522,1.143 -0.92766,1.35467 -0.92767,1.35466 -0.32555,0.508 -0.32555,0.508 -0.50731,0.84667 -0.50731,0.84667 -0.21405,0.381 -0.21404,0.381 -0.28559,0.508 -0.28559,0.508 -0.91745,1.86266 -0.91745,1.86267 -0.44114,1.05833 -0.44113,1.05834 -0.11102,0.254 -0.11102,0.254 -0.56738,1.59136 -0.56739,1.59136 -0.41819,1.37197 -0.4182,1.37197 -0.41473,1.69334 -0.41472,1.69333 -0.25224,1.35467 -0.25224,1.35466 -0.21374,1.48167 -0.21373,1.48167 -0.15179,1.60866 -0.15178,1.60867 -6.8e-4,3.59833 -6.7e-4,3.59834 0.11062,1.18532 0.11062,1.18534 0.12587,1.05833 0.12588,1.05834 0.24605,1.524 0.24605,1.524 0.22109,1.05833 0.22108,1.05833 0.34096,1.35467 0.34095,1.35467 0.37771,1.2542 0.3777,1.25421 0.45328,1.28579 0.45328,1.28579 0.39458,1.00197 0.39458,1.00196 0.5067,1.15704 0.5067,1.15704 1.0008,1.94733 1.00079,1.94733 0.63094,1.05834 0.63093,1.05833 0.62774,0.97366 0.62775,0.97367 0.67867,0.96249 0.67868,0.9625 0.25027,0.34984 0.25028,0.34984 0.79241,0.99999 0.79241,0.99999 1.02867,1.20134 1.02867,1.20134 1.73864,1.74457 1.73865,1.74457 1.10754,0.96476 1.10754,0.96477 0.58579,0.47785 0.58579,0.47784 1.05311,0.81708 1.05311,0.81707 1.31756,0.88634 1.31756,0.88633 0.84666,0.53147 0.84667,0.53148 0.889,0.51482 0.889,0.51482 0.67257,0.36033 0.67258,0.36033 1.09258,0.5444 1.09257,0.5444 0.56319,0.26022 0.56318,0.26021 1.10066,0.46064 1.10067,0.46063 1.18533,0.45045 1.18534,0.45044 1.60866,0.51131 1.60867,0.51131 0.93133,0.25227 0.93134,0.25226 1.31233,0.30171 1.31234,0.30172 0.889,0.16827 0.889,0.16825 0.80433,0.12632 0.80433,0.12631 1.35467,0.16972 1.35467,0.1697 1.22766,0.10679 1.22767,0.1068 3.13267,0.003 3.13266,0.003 1.143,-0.0647 1.143,-0.0647 1.43934,-0.16235 1.43933,-0.16236 1.397,-0.22162 1.397,-0.22162 0.84667,-0.16908 0.846659,-0.16907 0.508,-0.11899 0.508,-0.11899 1.09091,-0.26254 1.09089,-0.26255 1.38241,-0.41691 1.38242,-0.41691 0.53236,-0.17681 0.53235,-0.17681 1.18533,-0.42979 1.18533,-0.4298 1.43934,-0.6134 1.43933,-0.61341 1.39924,-0.67176 1.39924,-0.67177 1.35243,-0.74996 1.35242,-0.74996 1.22634,-0.76314 1.22634,-0.76315 1.05966,-0.72181 1.05966,-0.72181 1.05834,-0.80124 1.05833,-0.80125 0.889,-0.72102 0.889,-0.72102 1.0994,-0.97819 1.09939,-0.97818 1.27127,-1.27342 1.27127,-1.27341 0.46699,-0.50459 0.46699,-0.50458 0.59305,-0.67733 0.59307,-0.67733 0.411159,-0.49171 0.41117,-0.49171 1.05871,-1.37096 1.05871,-1.37096 1.08152,-1.62522 1.08152,-1.62522 0.58903,-0.99944 0.58903,-0.99945 0.3407,-0.59267 0.34069,-0.59266 0.71072,-1.397 0.71071,-1.397 0.56435,-1.27 0.56435,-1.27 0.43848,-1.10067 0.43848,-1.10067 0.45598,-1.29834 0.45598,-1.29833 0.4619,-1.58033 0.4619,-1.58033 0.29282,-1.22767 0.29284,-1.22766 0.25649,-1.31234 0.2565,-1.31233 0.17347,-1.143 0.17347,-1.143 0.0737,-0.59267 0.0737,-0.59266 0.0107,0.25885 0.0107,0.25885 -0.17128,1.39215 -0.17128,1.39215 -0.21258,1.27 -0.21258,1.27 -0.21425,1.05833 -0.21424,1.05833 -0.33594,1.397 -0.33593,1.397 -0.38218,1.335 -0.38217,1.33501 -0.59567,1.75241 -0.59567,1.75242 -0.53707,1.35758 -0.53707,1.35758 -0.56393,1.26962 -0.56393,1.26962 -0.96498,1.90538 -0.96499,1.90538 -0.81658,1.397 -0.81658,1.397 -0.81347,1.27 -0.81347,1.27 -0.96952,1.35467 -0.96953,1.35467 -0.852049,1.09336 -0.85206,1.09336 -1.02192,1.19264 -1.02192,1.19264 -1.24576,1.33065 -1.24575,1.33067 -1.33066,1.24575 -1.33066,1.24576 -1.19264,1.02191 -1.19263,1.02192 -1.09337,0.85206 -1.09336,0.85205 -1.35466,0.96953 -1.35467,0.96953 -1.27,0.81347 -1.27,0.81346 -1.397,0.81658 -1.397,0.81659 -1.90538,0.96498 -1.90538,0.96498 -1.26962,0.56393 -1.26962,0.56394 -1.397,0.55286 -1.397,0.55287 -1.98967,0.66697 -1.989659,0.66698 -1.54933,0.42257 -1.54933,0.42255 -1.49867,0.3335 -1.49867,0.3335 -1.18534,0.21595 -1.18533,0.21594 -1.48167,0.21061 -1.48166,0.21061 -1.31234,0.12927 -1.31233,0.12928 -1.35322,0.0865 -1.35323,0.0866 -2.92244,-0.0122 -2.92244,-0.0122 -1.05834,-0.0693 z m 30.310659,-36.68741 1.05834,-0.13789 1.30214,-0.25696 1.30216,-0.25697 1.02618,-0.29323 1.02618,-0.29321 0.97367,-0.34796 0.97367,-0.34795 0.88111,-0.37572 0.8811,-0.37572 1.0239,-0.51316 1.02389,-0.51318 0.84666,-0.50974 0.84667,-0.50974 0.508,-0.34022 0.508,-0.34022 0.635,-0.46835 0.635,-0.46835 0.67733,-0.5535 0.67734,-0.5535 0.37495,-0.33952 0.37496,-0.33951 0.54567,-0.508 0.54567,-0.508 0.90208,-1.016 0.90207,-1.016 0.64283,-0.80433 0.64282,-0.80434 0.53096,-0.80433 0.53097,-0.80433 0.49204,-0.82087 0.49204,-0.82085 0.50496,-0.99948 0.50496,-0.99947 0.22462,-0.508 0.22463,-0.508 0.40875,-1.05833 0.40874,-1.05834 0.30193,-1.016 0.30193,-1.016 0.21157,-0.889 0.21157,-0.889 0.17645,-1.016 0.176439,-1.016 0.12129,-1.22766 0.12129,-1.22767 0.002,-1.94745 0.002,-1.94744 -0.16703,-1.4613 -0.167029,-1.4613 -0.25567,-1.26725 -0.25566,-1.26724 -0.29409,-1.04372 -0.29409,-1.04371 -0.30363,-0.87229 -0.30362,-0.87228 -0.5119,-1.19734 -0.5119,-1.19735 -0.61667,-1.143 -0.61667,-1.143 -0.42294,-0.67733 -0.42295,-0.67733 -0.29278,-0.43226 -0.29277,-0.43226 -0.49736,-0.66841 -0.49737,-0.66841 -0.85954,-1.016 -0.85953,-1.016 -1.13624,-1.10287 -1.13622,-1.10287 -1.098,-0.87751 -1.098,-0.8775 -0.97367,-0.64863 -0.97367,-0.64863 -0.82561,-0.48862 -0.82562,-0.48862 -1.29104,-0.61874 -1.29106,-0.61875 -0.78218,-0.30629 -0.78217,-0.3063 -1.16259,-0.38256 -1.16258,-0.38257 -1.01857,-0.24772 -1.01858,-0.24772 -0.97366,-0.17334 -0.97367,-0.17335 -1.06985,-0.12432 -1.06984,-0.12433 -1.42782,-0.056 -1.42782,-0.056 -1.43934,0.0982 -1.439329,0.0982 -1.18533,0.16994 -1.18534,0.16995 -1.11571,0.24413 -1.11571,0.24413 -1.04329,0.30831 -1.04329,0.30832 -1.143,0.42403 -1.143,0.42403 -1.397,0.67519 -1.397,0.67519 -0.67733,0.39275 -0.67733,0.39275 -0.93744,0.61215 -0.93744,0.61215 -0.7559,0.56828 -0.75589,0.56827 -0.80433,0.69527 -0.80434,0.69527 -0.80433,0.79601 -0.80433,0.79601 -0.64062,0.71967 -0.64062,0.71966 -0.72333,0.93134 -0.72334,0.93133 -0.44714,0.67733 -0.44714,0.67734 -0.50914,0.84666 -0.50914,0.84667 -0.57198,1.143 -0.57199,1.143 -0.42173,1.016 -0.42174,1.016 -0.39607,1.22767 -0.39606,1.22766 -0.28448,1.18534 -0.28449,1.18533 -0.17228,1.05833 -0.17228,1.05834 -0.10505,0.97366 -0.10504,0.97367 0.005,2.159 0.005,2.159 0.13996,1.18533 0.13997,1.18533 0.17412,0.97367 0.17412,0.97367 0.25183,1.016 0.25183,1.016 0.25957,0.84666 0.25957,0.84667 0.54589,1.397 0.54589,1.397 0.71995,1.38803 0.71995,1.38804 0.59517,0.9403 0.59518,0.9403 0.51541,0.71966 0.51542,0.71967 0.99124,1.18533 0.99125,1.18534 1.17422,1.14496 1.17422,1.14497 1.10066,0.87832 1.10067,0.87832 1.05833,0.6902 1.05834,0.69021 0.254,0.16011 0.254,0.16011 0.59266,0.328 0.59267,0.32801 1.016,0.49276 1.016,0.49276 0.72848,0.30061 0.72848,0.30061 0.86548,0.30125 0.86547,0.30125 0.86138,0.24701 0.86138,0.24701 0.97366,0.21775 0.97367,0.21774 0.77038,0.12891 0.77038,0.1289 1.04996,0.11537 1.049949,0.11538 0.97137,0.016 0.97136,0.016 0.0162,0.0164 0.0162,0.0164 1.5524,-0.0548 1.55241,-0.0547 1.05833,-0.13789 z m 41.171069,-24.60227 v -0.381 l 0.0367,0.1905 0.0367,0.1905 -0.0367,0.1905 -0.0367,0.1905 z m 0.0683,-0.89605 0.007,-0.16228 0.0445,0.11112 0.0445,0.11113 -0.0511,0.0511 -0.0512,0.0512 0.007,-0.16227 z"
       id="path291" /></g></svg>
